HIERARCHY
ROOT Hips
{
  OFFSET 53.2368 93.5654 7.51221
  CHANNELS 6 Xposition Yposition Zposition Zrotation Xrotation Yrotation
  JOINT spine
  {
    OFFSET 0 7.4756 0.429885
    CHANNELS 3 Zrotation Xrotation Yrotation
    JOINT spine1
    {
      OFFSET 0 9.92301 0
      CHANNELS 3 Zrotation Xrotation Yrotation
      JOINT spine2
      {
        OFFSET 0 9.50804 0
        CHANNELS 3 Zrotation Xrotation Yrotation
        JOINT Neck
        {
          OFFSET 0 24.4111 1.16384
          CHANNELS 3 Zrotation Xrotation Yrotation
          JOINT Head
          {
            OFFSET 0 7.37523 0
            CHANNELS 3 Zrotation Xrotation Yrotation
            End Site
            {
              OFFSET 0 17.8522 -5.88741
            }
          }
        }
        JOINT RightShoulder
        {
          OFFSET -4.00356 10.2679 -0.557468
          CHANNELS 3 Zrotation Xrotation Yrotation
          JOINT RightArm
          {
            OFFSET 0 13.4673 0
            CHANNELS 3 Zrotation Xrotation Yrotation
            JOINT RightArmRoll
            {
              OFFSET 0 6.79858 0
              CHANNELS 3 Zrotation Xrotation Yrotation
              JOINT RightForeArm
              {
                OFFSET 0 19.8018 0
                CHANNELS 3 Zrotation Xrotation Yrotation
                JOINT RightForeArmRoll
                {
                  OFFSET 0 7.62905 0
                  CHANNELS 3 Zrotation Xrotation Yrotation
                  JOINT RightHand
                  {
                    OFFSET 0 15.3098 0
                    CHANNELS 3 Zrotation Xrotation Yrotation
                    End Site
                    {
                      OFFSET 0 0 0
                    }
                  }
                }
              }
            }
          }
        }
        JOINT LeftShoulder
        {
          OFFSET 4.00356 10.2679 -0.557468
          CHANNELS 3 Zrotation Xrotation Yrotation
          JOINT LeftArm
          {
            OFFSET 0 13.4673 0
            CHANNELS 3 Zrotation Xrotation Yrotation
            JOINT LeftArmRoll
            {
              OFFSET 0 6.79857 0
              CHANNELS 3 Zrotation Xrotation Yrotation
              JOINT LeftForeArm
              {
                OFFSET 0 19.8018 0
                CHANNELS 3 Zrotation Xrotation Yrotation
                JOINT LeftForeArmRoll
                {
                  OFFSET 0 7.62905 0
                  CHANNELS 3 Zrotation Xrotation Yrotation
                  JOINT LeftHand
                  {
                    OFFSET 0 15.3098 0
                    CHANNELS 3 Zrotation Xrotation Yrotation
                    End Site
                    {
                      OFFSET 0 0 0
                    }
                  }
                }
              }
            }
          }
        }
      }
    }
  }
  JOINT RightUpLeg
  {
    OFFSET -6.62609 -1.21505 -1.01927
    CHANNELS 3 Zrotation Xrotation Yrotation
    JOINT RightUpLegRoll
    {
      OFFSET 0 17.9517 0
      CHANNELS 3 Zrotation Xrotation Yrotation
      JOINT RightLeg
      {
        OFFSET 0 -22.2304 0
        CHANNELS 3 Zrotation Xrotation Yrotation
        JOINT RightLegRoll
        {
          OFFSET 0 22.3032 0
          CHANNELS 3 Zrotation Xrotation Yrotation
          JOINT RightFoot
          {
            OFFSET 0 18.5636 0
            CHANNELS 3 Zrotation Xrotation Yrotation
            JOINT RightToeBase
            {
              OFFSET 0 15.5183 0
              CHANNELS 3 Zrotation Xrotation Yrotation
              End Site
              {
                OFFSET 0.00657761 7.51539 -0.866263
              }
            }
          }
        }
      }
    }
  }
  JOINT LeftUpLeg
  {
    OFFSET 6.62609 -1.21505 -1.01927
    CHANNELS 3 Zrotation Xrotation Yrotation
    JOINT LeftUpLegRoll
    {
      OFFSET 0 17.9518 0
      CHANNELS 3 Zrotation Xrotation Yrotation
      JOINT LeftLeg
      {
        OFFSET 0 22.2303 0
        CHANNELS 3 Zrotation Xrotation Yrotation
        JOINT LeftLegRoll
        {
          OFFSET 0 22.5093 0
          CHANNELS 3 Zrotation Xrotation Yrotation
          JOINT LeftFoot
          {
            OFFSET 0 18.3575 0
            CHANNELS 3 Zrotation Xrotation Yrotation
            JOINT LeftToeBase
            {
              OFFSET 0 15.5183 0
              CHANNELS 3 Zrotation Xrotation Yrotation
              End Site
              {
                OFFSET -0.029478 7.51539 -0.866263
              }
            }
          }
        }
      }
    }
  }
}
MOTION
Frames: 12
Frame Time: 0.00208333
53.6956 93.7194 10.5599 -1.03158 -0.632176 0.978854 0.137655 -1.94776 0.168765 0.279323 0.0978131 0.326534 0.275563 1.74287 0.321945 0.465723 16.9279 0.183416 0.275059 2.96925 0.347984 34.0118 -12.6211 -8.70342 54.2332 20.3241 49.4362 -6.35349e-06 4.48395e-06 1.87361e-05 -3.57913 1.8044 -1.19898 6.69965e-06 -1.2648e-06 -3.00002 8.03007 -4.95138 0.697622 -40.3805 -11.7381 7.67678 -53.2051 20.9562 -45.6502 7.95512e-06 6.23871e-06 4.9112e-06 4.42774 2.33705 0.394355 7.01516e-06 9.26374e-06 3 -8.03013 -4.95137 -0.697619 -177.069 1.0993 -2.95703 180 7.01556e-15 178.963 178.388 7.72999 179.717 -1.96287e-06 -4.96196e-06 0.130501 -19.4148 69.0422 20.4029 8.13649 25.2327 -3.48774 -178.858 0.806649 2.93755 -1.07169e-05 -4.64205e-06 -1.00675 -2.36223 -6.65596 0.0509235 1.25426e-06 -2.5774e-06 -0.0903114 18.9319 68.4909 -19.9385 -8.13649 25.2327 3.48773 
53.696 93.7201 10.5555 -1.03189 -0.631331 0.980543 0.13769 -1.94769 0.168428 0.27889 0.097765 0.326283 0.27513 1.74282 0.3217 0.483885 16.927 0.179264 0.269429 2.96828 0.348856 34.0117 -12.6208 -8.70308 54.2201 20.3154 49.436 -6.35349e-06 4.48395e-06 1.87361e-05 -3.57688 1.80892 -1.19894 6.69965e-06 -1.2648e-06 -3.00002 8.03007 -4.95138 0.697622 -40.3737 -11.7339 7.67321 -53.2064 20.9526 -45.6506 7.95512e-06 6.23871e-06 4.9112e-06 4.42887 2.33214 0.394517 7.01516e-06 9.26374e-06 3 -8.03013 -4.95137 -0.697619 -177.069 1.10011 -2.95705 180 7.01556e-15 178.963 178.387 7.72668 179.717 -1.96287e-06 -4.96196e-06 0.130453 -19.4137 69.041 20.4018 8.13649 25.2327 -3.48774 -178.858 0.811198 2.93727 -1.07169e-05 -4.64205e-06 -1.00673 -2.36267 -6.6594 0.0507752 1.25426e-06 -2.5774e-06 -0.0903547 18.9335 68.4928 -19.9402 -8.13649 25.2327 3.48773 
53.6978 93.721 10.5531 -1.03219 -0.630508 0.982386 0.137666 -1.94758 0.167946 0.278276 0.0978652 0.325865 0.274517 1.74292 0.32129 0.502375 16.9261 0.175314 0.264099 2.96713 0.35005 34.0127 -12.6202 -8.70252 54.2058 20.3069 49.4364 -6.35349e-06 4.48395e-06 1.87361e-05 -3.57474 1.81296 -1.19895 6.69965e-06 -1.2648e-06 -3.00002 8.03007 -4.95138 0.697622 -40.3658 -11.7305 7.67031 -53.2076 20.951 -45.6523 7.95512e-06 6.23871e-06 4.9112e-06 4.43103 2.32423 0.394826 7.01516e-06 9.26374e-06 3 -8.03013 -4.95137 -0.697619 -177.069 1.10041 -2.95712 180 7.01556e-15 178.963 178.386 7.72227 179.717 -1.96287e-06 -4.96196e-06 0.130404 -19.4121 69.0393 20.4002 8.13649 25.2327 -3.48774 -178.857 0.816719 2.93699 -1.07169e-05 -4.64205e-06 -1.00671 -2.36314 -6.66435 0.0505606 1.25426e-06 -2.5774e-06 -0.0903978 18.9357 68.4953 -19.9426 -8.13649 25.2327 3.48773 
53.6978 93.7206 10.5468 -1.03248 -0.629705 0.984366 0.137592 -1.94745 0.167343 0.277513 0.0980859 0.325303 0.273755 1.74314 0.32074 0.521065 16.9253 0.171551 0.259046 2.96579 0.35151 34.0147 -12.6196 -8.70177 54.1905 20.2987 49.4372 -6.35349e-06 4.48395e-06 1.87361e-05 -3.57268 1.81658 -1.199 6.69965e-06 -1.2648e-06 -3.00002 8.03007 -4.95138 0.697622 -40.3568 -11.7276 7.66799 -53.2087 20.9511 -45.655 7.95512e-06 6.23871e-06 4.9112e-06 4.43407 2.31373 0.395266 7.01516e-06 9.26374e-06 3 -8.03013 -4.95137 -0.697619 -177.069 1.10028 -2.95726 180 7.01556e-15 178.963 178.386 7.71695 179.717 -1.96287e-06 -4.96196e-06 0.130355 -19.4101 69.0371 20.3981 8.13649 25.2327 -3.48774 -178.857 0.823061 2.9367 -1.07169e-05 -4.64205e-06 -1.0067 -2.36365 -6.67057 0.0502898 1.25426e-06 -2.5774e-06 -0.0904408 18.9384 68.4984 -19.9455 -8.13649 25.2327 3.48773 
53.6986 93.7225 10.5628 -1.03278 -0.628921 0.986465 0.137475 -1.9473 0.166641 0.276632 0.0983995 0.324623 0.272875 1.74345 0.320072 0.539828 16.9247 0.167961 0.254249 2.96425 0.353182 34.0175 -12.6188 -8.70087 54.1746 20.2906 49.4383 -6.35349e-06 4.48395e-06 1.87361e-05 -3.57072 1.81984 -1.19909 6.69965e-06 -1.2648e-06 -3.00002 8.03007 -4.95138 0.697622 -40.347 -11.7253 7.66613 -53.2097 20.9526 -45.6587 7.95512e-06 6.23871e-06 4.9112e-06 4.43785 2.30103 0.395819 7.01516e-06 9.26374e-06 3 -8.03013 -4.95137 -0.697619 -177.069 1.0998 -2.95744 180 7.01556e-15 178.963 178.386 7.71089 179.717 -1.96287e-06 -4.96196e-06 0.130307 -19.4077 69.0345 20.3956 8.13649 25.2327 -3.48774 -178.857 0.830074 2.9364 -1.07169e-05 -4.64205e-06 -1.00668 -2.36418 -6.67784 0.0499731 1.25426e-06 -2.5774e-06 -0.0904836 18.9414 68.5019 -19.9487 -8.13649 25.2327 3.48773 
53.6989 93.7248 10.5542 -1.03309 -0.628155 0.988665 0.137326 -1.94715 0.165864 0.275664 0.0987785 0.323849 0.271908 1.74383 0.319312 0.558537 16.9242 0.164526 0.249683 2.96251 0.355011 34.0208 -12.6178 -8.69983 54.1581 20.2828 49.4398 -6.35349e-06 4.48395e-06 1.87361e-05 -3.56885 1.82281 -1.19921 6.69965e-06 -1.2648e-06 -3.00002 8.03007 -4.95138 0.697622 -40.3367 -11.7233 7.66463 -53.2105 20.9552 -45.6631 7.95512e-06 6.23871e-06 4.9112e-06 4.44223 2.28653 0.396466 7.01516e-06 9.26374e-06 3 -8.03013 -4.95137 -0.697619 -177.069 1.09904 -2.95767 180 7.01556e-15 178.963 178.385 7.70427 179.717 -1.96287e-06 -4.96196e-06 0.130258 -19.4051 69.0316 20.3928 8.13649 25.2327 -3.48774 -178.857 0.837607 2.93609 -1.07169e-05 -4.64205e-06 -1.00666 -2.36474 -6.68591 0.0496206 1.25426e-06 -2.5774e-06 -0.0905261 18.9447 68.5058 -19.9523 -8.13649 25.2327 3.48773 
53.695 93.7249 10.5475 -1.0334 -0.627404 0.990947 0.137152 -1.947 0.165033 0.274638 0.0991952 0.323006 0.270884 1.74425 0.318483 0.577065 16.9241 0.161233 0.245327 2.96056 0.356943 34.0245 -12.6168 -8.6987 54.1413 20.275 49.4415 -6.35349e-06 4.48395e-06 1.87361e-05 -3.56708 1.82555 -1.19935 6.69965e-06 -1.2648e-06 -3.00002 8.03007 -4.95138 0.697622 -40.3261 -11.7216 7.66338 -53.211 20.9588 -45.6682 7.95512e-06 6.23871e-06 4.9112e-06 4.44706 2.27064 0.397189 7.01516e-06 9.26374e-06 3 -8.03013 -4.95137 -0.697619 -177.069 1.09809 -2.95793 180 7.01556e-15 178.963 178.385 7.69725 179.717 -1.96287e-06 -4.96196e-06 0.130209 -19.4022 69.0285 20.3899 8.13649 25.2327 -3.48774 -178.856 0.845509 2.93578 -1.07169e-05 -4.64205e-06 -1.00664 -2.36531 -6.69456 0.0492428 1.25426e-06 -2.5774e-06 -0.0905684 18.9482 68.5098 -19.9561 -8.13649 25.2327 3.48773 
53.6963 93.7239 10.5468 -1.03374 -0.626667 0.993294 0.136962 -1.94687 0.164173 0.273587 0.0996219 0.322117 0.269835 1.74467 0.31761 0.595286 16.9243 0.158064 0.241158 2.95839 0.358922 34.0284 -12.6157 -8.69749 54.1245 20.2672 49.4433 -6.35349e-06 4.48395e-06 1.87361e-05 -3.56539 1.82812 -1.1995 6.69965e-06 -1.2648e-06 -3.00002 8.03007 -4.95138 0.697622 -40.3153 -11.7201 7.66227 -53.2114 20.9629 -45.6737 7.95512e-06 6.23871e-06 4.9112e-06 4.4522 2.25376 0.397972 7.01516e-06 9.26374e-06 3 -8.03013 -4.95137 -0.697619 -177.069 1.09702 -2.95823 180 7.01556e-15 178.963 178.384 7.68997 179.717 -1.96287e-06 -4.96196e-06 0.13016 -19.3993 69.0253 20.3867 8.13649 25.2327 -3.48774 -178.856 0.853631 2.93545 -1.07169e-05 -4.64205e-06 -1.00662 -2.3659 -6.70354 0.0488497 1.25426e-06 -2.5774e-06 -0.0906104 18.9518 68.514 -19.96 -8.13649 25.2327 3.48773 
53.6974 93.7259 10.5515 -1.03409 -0.625942 0.995688 0.136764 -1.94677 0.163305 0.272541 0.100031 0.321208 0.26879 1.74508 0.316715 0.613071 16.9249 0.155005 0.237154 2.95601 0.360895 34.0322 -12.6146 -8.69624 54.1079 20.2595 49.4452 -6.35349e-06 4.48395e-06 1.87361e-05 -3.56379 1.83059 -1.19966 6.69965e-06 -1.2648e-06 -3.00002 8.03007 -4.95138 0.697622 -40.3047 -11.7186 7.6612 -53.2114 20.9674 -45.6795 7.95512e-06 6.23871e-06 4.9112e-06 4.4575 2.23628 0.398795 7.01516e-06 9.26374e-06 3 -8.03013 -4.95137 -0.697619 -177.068 1.09592 -2.95855 180 7.01556e-15 178.963 178.384 7.68266 179.717 -1.96287e-06 -4.96196e-06 0.130111 -19.3963 69.022 20.3836 8.13649 25.2327 -3.48774 -178.856 0.861821 2.93511 -1.07169e-05 -4.64205e-06 -1.0066 -2.36649 -6.71262 0.0484516 1.25426e-06 -2.5774e-06 -0.0906521 18.9554 68.5182 -19.9638 -8.13649 25.2327 3.48773 
53.6971 93.7271 10.5479 -1.03446 -0.625228 0.99811 0.136568 -1.94671 0.162453 0.271531 0.100395 0.320303 0.267781 1.74544 0.315825 0.630296 16.926 0.15204 0.233291 2.95341 0.362806 34.0358 -12.6134 -8.69497 54.0917 20.2516 49.447 -6.35349e-06 4.48395e-06 1.87361e-05 -3.56228 1.83301 -1.19983 6.69965e-06 -1.2648e-06 -3.00002 8.03007 -4.95138 0.697622 -40.2945 -11.717 7.66005 -53.211 20.9721 -45.6855 7.95512e-06 6.23871e-06 4.9112e-06 4.46283 2.21862 0.399641 7.01516e-06 9.26374e-06 3 -8.03013 -4.95137 -0.697619 -177.068 1.09485 -2.95888 180 7.01556e-15 178.963 178.384 7.67544 179.717 -1.96287e-06 -4.96196e-06 0.130062 -19.3933 69.0188 20.3804 8.13649 25.2327 -3.48774 -178.856 0.869929 2.93476 -1.07169e-05 -4.64205e-06 -1.00658 -2.36708 -6.72157 0.0480588 1.25426e-06 -2.5774e-06 -0.0906935 18.9589 68.5222 -19.9676 -8.13649 25.2327 3.48773 
53.7029 93.7277 10.5658 -1.03487 -0.624522 1.00054 0.136381 -1.9467 0.16164 0.270587 0.100686 0.319427 0.266839 1.74573 0.314962 0.646832 16.9276 0.149154 0.229547 2.95057 0.364601 34.0389 -12.6123 -8.69373 54.0761 20.2437 49.4489 -6.35349e-06 4.48395e-06 1.87361e-05 -3.56085 1.83545 -1.19999 6.69965e-06 -1.2648e-06 -3.00002 8.03007 -4.95138 0.697622 -40.2848 -11.7152 7.65872 -53.2103 20.9766 -45.6915 7.95512e-06 6.23871e-06 4.9112e-06 4.46803 2.20116 0.400493 7.01516e-06 9.26374e-06 3 -8.03013 -4.95137 -0.697619 -177.068 1.0939 -2.95922 180 7.01556e-15 178.964 178.383 7.66852 179.717 -1.96287e-06 -4.96196e-06 0.130014 -19.3904 69.0156 20.3774 8.13649 25.2327 -3.48774 -178.855 0.877805 2.93439 -1.07169e-05 -4.64205e-06 -1.00656 -2.36767 -6.73016 0.0476815 1.25426e-06 -2.5774e-06 -0.0907345 18.9623 68.5261 -19.9712 -8.13649 25.2327 3.48773 
53.7021 93.7279 10.5614 -1.03531 -0.623825 1.00297 0.136213 -1.94675 0.160888 0.269741 0.100877 0.318604 0.265994 1.74592 0.314151 0.662552 16.9299 0.14633 0.225901 2.94749 0.366225 34.0414 -12.6111 -8.69252 54.0614 20.2356 49.4505 -6.35349e-06 4.48395e-06 1.87361e-05 -3.55951 1.83798 -1.20014 6.69965e-06 -1.2648e-06 -3.00002 8.03007 -4.95138 0.697622 -40.2759 -11.7132 7.6571 -53.2091 20.9806 -45.6973 7.95512e-06 6.23871e-06 4.9112e-06 4.47296 2.18431 0.401331 7.01516e-06 9.26374e-06 3 -8.03013 -4.95137 -0.697619 -177.068 1.09315 -2.95957 180 7.01556e-15 178.964 178.383 7.66206 179.717 -1.96287e-06 -4.96196e-06 0.129965 -19.3877 69.0127 20.3746 8.13649 25.2327 -3.48774 -178.855 0.885297 2.93401 -1.07169e-05 -4.64205e-06 -1.00654 -2.36825 -6.73813 0.04733 1.25426e-06 -2.5774e-06 -0.0907751 18.9653 68.5296 -19.9745 -8.13649 25.2327 3.48773 
